SplineFontDB: 3.2
FontName: PrimeJedi
FullName: Prime Jedi
FamilyName: Prime Jedi
Weight: Regular
Copyright: Designed by Meagan Bethel, CC-0 Public Domain
Version: 1.0
ItalicAngle: 0
UnderlinePosition: 6
UnderlineWidth: 0
Ascent: 1000
Descent: 0
InvalidEm: 0
sfntRevision: 0x00010000
LayerCount: 2
Layer: 0 1 "Back" 1
Layer: 1 1 "Fore" 0
XUID: [1021 178 1911899458 21621]
StyleMap: 0x0040
FSType: 8
OS2Version: 2
OS2_WeightWidthSlopeOnly: 0
OS2_UseTypoMetrics: 0
CreationTime: 1593196692
ModificationTime: 1593226249
PfmFamily: 17
TTFWeight: 400
TTFWidth: 5
LineGap: 72
VLineGap: 0
Panose: 2 0 5 3 0 0 0 0 0 0
OS2TypoAscent: 800
OS2TypoAOffset: 0
OS2TypoDescent: 0
OS2TypoDOffset: 0
OS2TypoLinegap: 72
OS2WinAscent: 801
OS2WinAOffset: 0
OS2WinDescent: 0
OS2WinDOffset: 0
HheadAscent: 800
HheadAOffset: 0
HheadDescent: 0
HheadDOffset: 0
OS2SubXSize: 507
OS2SubYSize: 559
OS2SubXOff: 0
OS2SubYOff: 112
OS2SupXSize: 507
OS2SupYSize: 559
OS2SupXOff: 0
OS2SupYOff: 383
OS2StrikeYSize: 39
OS2StrikeYPos: 206
OS2Vendor: 'PfEd'
OS2CodePages: 00000001.00000000
OS2UnicodeRanges: 00000000.00000000.00000000.00000000
MarkAttachClasses: 1
DEI: 91125
ShortTable: maxp 16
  1
  0
  54
  64
  7
  0
  0
  2
  0
  10
  10
  0
  255
  0
  0
  0
EndShort
LangName: 1033 "" "" "" "PrimeJedi:MeaganBethel" "" "Version 1.0" "" "" "" "Meagan Bethel" "" "" "https://linktr.ee/doodlebethel"
Encoding: UnicodeBmp
UnicodeInterp: none
NameList: AGL For New Fonts
DisplaySize: -72
AntiAlias: 1
FitToEm: 0
WinInfo: 0 25 10
BeginPrivate: 0
EndPrivate
BeginChars: 65536 55

StartChar: hyphen
Encoding: 45 45 1
Width: 553
VWidth: 799
Flags: W
LayerCount: 2
Fore
SplineSet
0 25 m 1,0,1
 554 25 l 1,2,-1
 554 0 l 1,3,-1
 0 0 l 1,4,-1
 0 12 l 2,5,6
 0 23 0 23 0 25 c 1,0,1
0 800 m 1,7,-1
 554 800 l 1,8,-1
 554 775 l 1,9,-1
 0 775 l 1,10,-1
 0 788 l 2,11,12
 0 798 0 798 0 800 c 1,7,-1
EndSplineSet
Validated: 1
EndChar

StartChar: A
Encoding: 65 65 2
Width: 553
VWidth: 799
Flags: W
LayerCount: 2
Fore
SplineSet
124 174 m 1,0,1
 124 25 l 1,2,-1
 265 25 l 1,3,-1
 265 363 l 1,4,-1
 194 268 l 2,5,6
 132 186 132 186 124 174 c 1,0,1
265 775 m 1,7,-1
 124 775 l 1,8,-1
 124 216 l 1,9,-1
 265 404 l 1,10,-1
 265 589 l 2,11,12
 265 752 265 752 265 775 c 1,7,-1
430 216 m 1,13,-1
 430 775 l 1,14,-1
 289 775 l 1,15,-1
 289 404 l 1,16,-1
 360 309 l 2,17,18
 422 228 422 228 430 216 c 1,13,-1
430 25 m 1,19,-1
 430 174 l 1,20,-1
 289 363 l 1,21,-1
 289 25 l 1,22,-1
 360 25 l 2,23,24
 422 25 422 25 430 25 c 1,19,-1
456 25 m 1,25,-1
 554 25 l 1,26,-1
 554 0 l 1,27,-1
 0 0 l 1,28,-1
 0 25 l 1,29,-1
 99 25 l 1,30,-1
 99 775 l 1,31,-1
 0 775 l 1,32,-1
 0 800 l 1,33,-1
 554 800 l 1,34,-1
 554 775 l 1,35,-1
 456 775 l 1,36,-1
 456 400 l 2,37,38
 456 72 456 72 456 25 c 1,25,-1
EndSplineSet
Validated: 1
EndChar

StartChar: B
Encoding: 66 66 3
Width: 553
VWidth: 799
Flags: W
LayerCount: 2
Fore
SplineSet
124 443 m 1,0,1
 124 25 l 1,2,-1
 375 25 l 1,3,4
 370 197 370 197 299.5 314 c 128,-1,5
 229 431 229 431 124 443 c 1,0,1
400 25 m 1,6,-1
 554 25 l 1,7,-1
 554 0 l 1,8,-1
 0 0 l 1,9,-1
 0 25 l 1,10,-1
 99 25 l 1,11,-1
 99 775 l 1,12,-1
 0 775 l 1,13,-1
 0 800 l 1,14,-1
 554 800 l 1,15,-1
 554 775 l 1,16,-1
 124 775 l 1,17,-1
 124 468 l 1,18,19
 240 456 240 456 317 332 c 128,-1,20
 394 208 394 208 400 25 c 1,6,-1
276 538 m 0,21,22
 277 554 277 554 291.5 562 c 128,-1,23
 306 570 306 570 318.5 562.5 c 128,-1,24
 331 555 331 555 331.5 539 c 128,-1,25
 332 523 332 523 318 515 c 128,-1,26
 304 507 304 507 291 514 c 128,-1,27
 278 521 278 521 276 538 c 0,21,22
EndSplineSet
Validated: 1
EndChar

StartChar: C
Encoding: 67 67 4
Width: 553
VWidth: 799
Flags: W
LayerCount: 2
Fore
SplineSet
124 25 m 1,0,1
 343 25 l 1,2,3
 258 69 258 69 207 168.5 c 128,-1,4
 156 268 156 268 154 400 c 0,5,6
 156 532 156 532 208 631.5 c 128,-1,7
 260 731 260 731 343 775 c 1,8,-1
 124 775 l 1,9,-1
 124 400 l 2,10,11
 124 72 124 72 124 25 c 1,0,1
430 25 m 1,12,-1
 430 775 l 1,13,14
 322 764 322 764 251.5 659.5 c 128,-1,15
 181 555 181 555 179 400 c 1,16,17
 183 245 183 245 252.5 140.5 c 128,-1,18
 322 36 322 36 430 25 c 1,12,-1
554 25 m 1,19,-1
 554 0 l 1,20,-1
 0 0 l 1,21,-1
 0 25 l 1,22,-1
 99 25 l 1,23,-1
 99 775 l 1,24,-1
 0 775 l 1,25,-1
 0 800 l 1,26,-1
 443 800 l 1,27,-1
 554 800 l 1,28,-1
 554 775 l 1,29,-1
 456 775 l 1,30,-1
 456 25 l 1,31,-1
 504 25 l 2,32,33
 548 25 548 25 554 25 c 1,19,-1
EndSplineSet
Validated: 1
EndChar

StartChar: D
Encoding: 68 68 5
Width: 553
VWidth: 799
Flags: W
LayerCount: 2
Fore
SplineSet
375 400 m 1,0,1
 372 555 372 555 302 659.5 c 128,-1,2
 232 764 232 764 124 775 c 1,3,-1
 124 25 l 1,4,5
 232 36 232 36 302 140.5 c 128,-1,6
 372 245 372 245 375 400 c 1,0,1
554 25 m 1,7,8
 554 0 l 1,9,-1
 111 0 l 1,10,-1
 0 0 l 1,11,-1
 0 25 l 1,12,-1
 99 25 l 1,13,-1
 99 775 l 1,14,-1
 0 775 l 1,15,-1
 0 800 l 1,16,-1
 554 800 l 1,17,-1
 554 775 l 1,18,-1
 211 775 l 1,19,20
 295 731 295 731 346.5 631.5 c 128,-1,21
 398 532 398 532 400 400 c 0,22,23
 398 268 398 268 347 168.5 c 128,-1,24
 296 69 296 69 211 25 c 1,25,-1
 430 25 l 1,26,-1
 430 344 l 1,27,-1
 456 344 l 1,28,-1
 456 25 l 1,29,-1
 504 25 l 2,30,31
 548 25 548 25 554 25 c 1,7,8
416 427 m 0,32,33
 416 444 416 444 430 452 c 128,-1,34
 444 460 444 460 457 452 c 128,-1,35
 470 444 470 444 470 428 c 128,-1,36
 470 412 470 412 456 404 c 128,-1,37
 442 396 442 396 429.5 403 c 128,-1,38
 417 410 417 410 416 427 c 0,32,33
EndSplineSet
Validated: 1
EndChar

StartChar: E
Encoding: 69 69 6
Width: 553
VWidth: 799
Flags: W
LayerCount: 2
Fore
SplineSet
430 239 m 1,0,1
 406 164 406 164 364 109 c 128,-1,2
 322 54 322 54 266 25 c 1,3,-1
 430 25 l 1,4,-1
 430 132 l 2,5,6
 430 226 430 226 430 239 c 1,0,1
554 25 m 1,7,8
 554 0 l 1,9,-1
 167 0 l 1,10,-1
 0 0 l 1,11,-1
 0 25 l 1,12,-1
 168 25 l 1,13,14
 277 30 277 30 350.5 131.5 c 128,-1,15
 424 233 424 233 430 388 c 1,16,-1
 167 388 l 1,17,-1
 167 412 l 1,18,-1
 430 412 l 1,19,-1
 430 775 l 1,20,-1
 0 775 l 1,21,-1
 0 800 l 1,22,-1
 554 800 l 1,23,-1
 554 775 l 1,24,-1
 456 775 l 1,25,-1
 456 25 l 1,26,-1
 504 25 l 2,27,28
 548 25 548 25 554 25 c 1,7,8
EndSplineSet
Validated: 1
EndChar

StartChar: F
Encoding: 70 70 7
Width: 553
VWidth: 799
Flags: W
LayerCount: 2
Fore
SplineSet
131 775 m 1,0,1
 430 124 l 1,2,-1
 430 775 l 1,3,-1
 280 775 l 2,4,5
 150 775 150 775 131 775 c 1,0,1
456 25 m 1,6,-1
 554 25 l 1,7,-1
 554 0 l 1,8,-1
 0 0 l 1,9,-1
 0 25 l 1,10,-1
 430 25 l 1,11,-1
 430 65 l 1,12,-1
 308 332 l 1,13,-1
 111 332 l 1,14,-1
 111 357 l 1,15,-1
 296 357 l 1,16,-1
 103 775 l 1,17,-1
 0 775 l 1,18,-1
 0 800 l 1,19,-1
 554 800 l 1,20,-1
 554 775 l 1,21,-1
 456 775 l 1,22,-1
 456 400 l 2,23,24
 456 72 456 72 456 25 c 1,6,-1
EndSplineSet
Validated: 1
EndChar

StartChar: G
Encoding: 71 71 8
Width: 553
VWidth: 799
Flags: W
LayerCount: 2
Fore
SplineSet
430 775 m 1,0,1
 124 775 l 1,2,-1
 124 156 l 1,3,4
 163 264 163 264 245 332.5 c 128,-1,5
 327 401 327 401 430 411 c 1,6,-1
 430 593 l 2,7,8
 430 752 430 752 430 775 c 1,0,1
124 25 m 1,9,-1
 554 25 l 1,10,-1
 554 0 l 1,11,-1
 0 0 l 1,12,-1
 0 25 l 1,13,-1
 99 25 l 1,14,-1
 99 775 l 1,15,-1
 0 775 l 1,16,-1
 0 800 l 1,17,-1
 554 800 l 1,18,-1
 554 775 l 1,19,-1
 456 775 l 1,20,-1
 456 388 l 1,21,22
 322 384 322 384 227 282 c 128,-1,23
 132 180 132 180 124 25 c 1,9,-1
EndSplineSet
Validated: 1
EndChar

StartChar: H
Encoding: 72 72 9
Width: 553
VWidth: 799
Flags: W
LayerCount: 2
Fore
SplineSet
124 167 m 1,0,1
 124 25 l 1,2,-1
 430 25 l 1,3,-1
 430 167 l 1,4,-1
 276 167 l 2,5,6
 143 167 143 167 124 167 c 1,0,1
430 775 m 1,7,-1
 124 775 l 1,8,-1
 124 190 l 1,9,-1
 265 190 l 1,10,-1
 265 400 l 1,11,-1
 289 400 l 1,12,-1
 289 190 l 1,13,-1
 430 190 l 1,14,-1
 430 483 l 2,15,16
 430 739 430 739 430 775 c 1,7,-1
456 25 m 1,17,-1
 554 25 l 1,18,-1
 554 0 l 1,19,-1
 0 0 l 1,20,-1
 0 25 l 1,21,-1
 99 25 l 1,22,-1
 99 775 l 1,23,-1
 0 775 l 1,24,-1
 0 800 l 1,25,-1
 554 800 l 1,26,-1
 554 775 l 1,27,-1
 456 775 l 1,28,-1
 456 400 l 2,29,30
 456 72 456 72 456 25 c 1,17,-1
EndSplineSet
Validated: 1
EndChar

StartChar: I
Encoding: 73 73 10
Width: 553
VWidth: 799
Flags: W
LayerCount: 2
Fore
SplineSet
289 25 m 1,0,1
 554 25 l 1,2,-1
 554 0 l 1,3,-1
 0 0 l 1,4,-1
 0 25 l 1,5,-1
 265 25 l 1,6,-1
 265 775 l 1,7,-1
 0 775 l 1,8,-1
 0 800 l 1,9,-1
 554 800 l 1,10,-1
 554 775 l 1,11,-1
 289 775 l 1,12,-1
 289 400 l 2,13,14
 289 72 289 72 289 25 c 1,0,1
EndSplineSet
Validated: 1
EndChar

StartChar: J
Encoding: 74 74 11
Width: 553
VWidth: 799
Flags: W
LayerCount: 2
Fore
SplineSet
124 444 m 1,0,1
 124 25 l 1,2,-1
 430 25 l 1,3,-1
 430 664 l 1,4,5
 391 572 391 572 309.5 512 c 128,-1,6
 228 452 228 452 124 444 c 1,0,1
456 25 m 1,7,-1
 554 25 l 1,8,-1
 554 0 l 1,9,-1
 0 0 l 1,10,-1
 0 25 l 1,11,-1
 99 25 l 1,12,-1
 99 468 l 1,13,14
 232 472 232 472 326.5 558 c 128,-1,15
 421 644 421 644 430 775 c 1,16,-1
 0 775 l 1,17,-1
 0 800 l 1,18,-1
 554 800 l 1,19,-1
 554 775 l 1,20,-1
 456 775 l 1,21,-1
 456 400 l 2,22,23
 456 72 456 72 456 25 c 1,7,-1
EndSplineSet
Validated: 1
EndChar

StartChar: K
Encoding: 75 75 12
Width: 553
VWidth: 799
Flags: W
LayerCount: 2
Fore
SplineSet
124 289 m 2,0,1
 124 25 l 1,2,-1
 430 25 l 1,3,-1
 430 289 l 2,4,5
 428 355 428 355 385 398 c 128,-1,6
 342 441 342 441 276 443 c 0,7,8
 211 441 211 441 168.5 398 c 128,-1,9
 126 355 126 355 124 289 c 2,0,1
430 775 m 1,10,-1
 135 775 l 1,11,-1
 430 381 l 1,12,-1
 430 579 l 2,13,14
 430 751 430 751 430 775 c 1,10,-1
456 25 m 1,15,-1
 554 25 l 1,16,-1
 554 0 l 1,17,-1
 0 0 l 1,18,-1
 0 25 l 1,19,-1
 99 25 l 1,20,-1
 99 289 l 2,21,22
 101 365 101 365 151 415.5 c 128,-1,23
 201 466 201 466 276 468 c 0,24,25
 314 467 314 467 346 454 c 1,26,-1
 104 775 l 1,27,-1
 0 775 l 1,28,-1
 0 800 l 1,29,-1
 554 800 l 1,30,-1
 554 775 l 1,31,-1
 456 775 l 1,32,-1
 456 400 l 2,33,34
 456 72 456 72 456 25 c 1,15,-1
EndSplineSet
Validated: 1
EndChar

StartChar: L
Encoding: 76 76 13
Width: 553
VWidth: 799
Flags: W
LayerCount: 2
Fore
SplineSet
179 775 m 1,0,1
 179 25 l 1,2,-1
 375 25 l 1,3,-1
 375 775 l 1,4,-1
 276 775 l 2,5,6
 191 775 191 775 179 775 c 1,0,1
400 25 m 1,7,-1
 554 25 l 1,8,-1
 554 0 l 1,9,-1
 0 0 l 1,10,-1
 0 25 l 1,11,-1
 154 25 l 1,12,-1
 154 775 l 1,13,-1
 0 775 l 1,14,-1
 0 800 l 1,15,-1
 554 800 l 1,16,-1
 554 775 l 1,17,-1
 400 775 l 1,18,-1
 400 400 l 2,19,20
 400 72 400 72 400 25 c 1,7,-1
EndSplineSet
Validated: 1
EndChar

StartChar: M
Encoding: 77 77 14
Width: 553
VWidth: 799
Flags: W
LayerCount: 2
Fore
SplineSet
124 179 m 2,0,1
 124 25 l 1,2,-1
 430 25 l 1,3,-1
 430 276 l 1,4,-1
 276 276 l 2,5,6
 211 275 211 275 168.5 248 c 128,-1,7
 126 221 126 221 124 179 c 2,0,1
124 449 m 1,8,-1
 124 241 l 1,9,10
 147 267 147 267 183 282.5 c 128,-1,11
 219 298 219 298 265 300 c 1,12,-1
 265 388 l 1,13,14
 219 391 219 391 182.5 407 c 128,-1,15
 146 423 146 423 124 449 c 1,8,-1
124 775 m 1,16,-1
 124 511 l 2,17,18
 126 469 126 469 169 441 c 128,-1,19
 212 413 212 413 276 412 c 2,20,21
 430 412 l 1,22,-1
 430 775 l 1,23,-1
 276 775 l 2,24,25
 143 775 143 775 124 775 c 1,16,-1
289 388 m 1,26,-1
 289 301 l 1,27,-1
 430 301 l 1,28,-1
 430 388 l 1,29,-1
 360 388 l 2,30,31
 298 388 298 388 289 388 c 1,26,-1
456 25 m 1,32,-1
 554 25 l 1,33,-1
 554 0 l 1,34,-1
 0 0 l 1,35,-1
 0 25 l 1,36,-1
 99 25 l 1,37,-1
 99 775 l 1,38,-1
 0 775 l 1,39,-1
 0 800 l 1,40,-1
 554 800 l 1,41,-1
 554 775 l 1,42,-1
 456 775 l 1,43,-1
 456 400 l 2,44,45
 456 72 456 72 456 25 c 1,32,-1
EndSplineSet
Validated: 1
EndChar

StartChar: N
Encoding: 78 78 15
Width: 553
VWidth: 799
Flags: W
LayerCount: 2
Fore
SplineSet
124 25 m 1,0,1
 554 25 l 1,2,-1
 554 0 l 1,3,-1
 0 0 l 1,4,-1
 0 25 l 1,5,-1
 99 25 l 1,6,-1
 99 540 l 1,7,-1
 430 208 l 1,8,-1
 430 775 l 1,9,-1
 0 775 l 1,10,-1
 0 800 l 1,11,-1
 554 800 l 1,12,-1
 554 775 l 1,13,-1
 456 775 l 1,14,-1
 456 148 l 1,15,-1
 124 481 l 1,16,-1
 124 253 l 2,17,18
 124 53 124 53 124 25 c 1,0,1
EndSplineSet
Validated: 1
EndChar

StartChar: O
Encoding: 79 79 16
Width: 553
VWidth: 799
Flags: W
LayerCount: 2
Fore
SplineSet
320 25 m 1,0,1
 320 179 l 2,2,3
 319 198 319 198 307.5 209.5 c 128,-1,4
 296 221 296 221 277.5 221 c 128,-1,5
 259 221 259 221 246.5 209 c 128,-1,6
 234 197 234 197 233 179 c 2,7,-1
 233 25 l 1,8,-1
 276 25 l 2,9,10
 315 25 315 25 320 25 c 1,0,1
124 775 m 1,11,-1
 124 25 l 1,12,-1
 210 25 l 1,13,-1
 210 179 l 2,14,15
 211 207 211 207 229.5 226 c 128,-1,16
 248 245 248 245 277 245 c 128,-1,17
 306 245 306 245 325 226 c 128,-1,18
 344 207 344 207 344 179 c 2,19,-1
 344 25 l 1,20,-1
 430 25 l 1,21,-1
 430 775 l 1,22,-1
 344 775 l 1,23,-1
 344 621 l 2,24,25
 343 593 343 593 324.5 574 c 128,-1,26
 306 555 306 555 277 555 c 128,-1,27
 248 555 248 555 229.5 574 c 128,-1,28
 211 593 211 593 210 621 c 2,29,-1
 210 775 l 1,30,-1
 167 775 l 2,31,32
 129 775 129 775 124 775 c 1,11,-1
233 775 m 1,33,-1
 233 621 l 2,34,35
 234 602 234 602 246.5 590.5 c 128,-1,36
 259 579 259 579 277.5 579 c 128,-1,37
 296 579 296 579 307.5 591 c 128,-1,38
 319 603 319 603 320 621 c 2,39,-1
 320 775 l 1,40,-1
 276 775 l 2,41,42
 238 775 238 775 233 775 c 1,33,-1
456 25 m 1,43,-1
 554 25 l 1,44,-1
 554 0 l 1,45,-1
 0 0 l 1,46,-1
 0 25 l 1,47,-1
 99 25 l 1,48,-1
 99 775 l 1,49,-1
 0 775 l 1,50,-1
 0 800 l 1,51,-1
 554 800 l 1,52,-1
 554 775 l 1,53,-1
 456 775 l 1,54,-1
 456 400 l 2,55,56
 456 72 456 72 456 25 c 1,43,-1
EndSplineSet
Validated: 1
EndChar

StartChar: P
Encoding: 80 80 17
Width: 553
VWidth: 799
Flags: W
LayerCount: 2
Fore
SplineSet
124 388 m 1,0,1
 124 25 l 1,2,-1
 430 25 l 1,3,-1
 430 640 l 1,4,5
 392 531 392 531 311 462 c 128,-1,6
 230 393 230 393 124 388 c 1,0,1
430 775 m 1,7,-1
 124 775 l 1,8,-1
 124 412 l 1,9,10
 252 420 252 420 337.5 522 c 128,-1,11
 423 624 423 624 430 775 c 1,7,-1
456 25 m 1,12,-1
 554 25 l 1,13,-1
 554 0 l 1,14,-1
 0 0 l 1,15,-1
 0 25 l 1,16,-1
 99 25 l 1,17,-1
 99 775 l 1,18,-1
 0 775 l 1,19,-1
 0 800 l 1,20,-1
 554 800 l 1,21,-1
 554 775 l 1,22,-1
 456 775 l 1,23,-1
 456 400 l 2,24,25
 456 72 456 72 456 25 c 1,12,-1
EndSplineSet
Validated: 1
EndChar

StartChar: Q
Encoding: 81 81 18
Width: 553
VWidth: 799
Flags: W
LayerCount: 2
Fore
SplineSet
124 775 m 1,0,1
 124 25 l 1,2,-1
 154 25 l 1,3,-1
 154 775 l 1,4,-1
 138 775 l 2,5,6
 126 775 126 775 124 775 c 1,0,1
430 591 m 1,7,-1
 430 775 l 1,8,-1
 201 775 l 1,9,-1
 317 683 l 2,10,11
 416 603 416 603 430 591 c 1,7,-1
430 209 m 1,12,-1
 201 25 l 1,13,-1
 430 25 l 1,14,-1
 430 117 l 2,15,16
 430 197 430 197 430 209 c 1,12,-1
179 221 m 1,17,-1
 179 38 l 1,18,-1
 408 221 l 1,19,-1
 293 221 l 2,20,21
 194 221 194 221 179 221 c 1,17,-1
179 579 m 1,22,-1
 408 579 l 1,23,-1
 179 762 l 1,24,-1
 179 670 l 2,25,26
 179 591 179 591 179 579 c 1,22,-1
179 554 m 1,27,-1
 179 246 l 1,28,-1
 430 246 l 1,29,-1
 430 554 l 1,30,-1
 305 554 l 2,31,32
 196 554 196 554 179 554 c 1,27,-1
456 25 m 1,33,-1
 554 25 l 1,34,-1
 554 0 l 1,35,-1
 0 0 l 1,36,-1
 0 25 l 1,37,-1
 99 25 l 1,38,-1
 99 775 l 1,39,-1
 0 775 l 1,40,-1
 0 800 l 1,41,-1
 554 800 l 1,42,-1
 554 775 l 1,43,-1
 456 775 l 1,44,-1
 456 400 l 2,45,46
 456 72 456 72 456 25 c 1,33,-1
EndSplineSet
Validated: 1
EndChar

StartChar: R
Encoding: 82 82 19
Width: 553
VWidth: 799
Flags: W
LayerCount: 2
Fore
SplineSet
430 366 m 1,0,1
 137 25 l 1,2,-1
 430 25 l 1,3,-1
 430 196 l 2,4,5
 430 345 430 345 430 366 c 1,0,1
276 412 m 0,6,7
 342 414 342 414 385 457.5 c 128,-1,8
 428 501 428 501 430 567 c 2,9,-1
 430 775 l 1,10,-1
 124 775 l 1,11,-1
 124 567 l 2,12,13
 126 501 126 501 168.5 457.5 c 128,-1,14
 211 414 211 414 276 412 c 0,6,7
456 25 m 1,15,-1
 554 25 l 1,16,-1
 554 0 l 1,17,-1
 0 0 l 1,18,-1
 0 25 l 1,19,-1
 105 25 l 1,20,-1
 430 405 l 1,21,-1
 430 476 l 1,22,23
 406 436 406 436 366.5 412 c 128,-1,24
 327 388 327 388 276 388 c 0,25,26
 201 391 201 391 150.5 441 c 128,-1,27
 100 491 100 491 99 567 c 2,28,-1
 99 775 l 1,29,-1
 0 775 l 1,30,-1
 0 800 l 1,31,-1
 554 800 l 1,32,-1
 554 775 l 1,33,-1
 456 775 l 1,34,-1
 456 400 l 2,35,36
 456 72 456 72 456 25 c 1,15,-1
EndSplineSet
Validated: 1
EndChar

StartChar: S
Encoding: 83 83 20
Width: 553
VWidth: 799
Flags: W
LayerCount: 2
Fore
SplineSet
312 775 m 1,0,1
 124 775 l 1,2,-1
 124 396 l 1,3,-1
 218 586 l 2,4,5
 300 751 300 751 312 775 c 1,0,1
124 332 m 1,6,-1
 124 64 l 1,7,-1
 257 332 l 1,8,-1
 189 332 l 2,9,10
 132 332 132 332 124 332 c 1,6,-1
430 25 m 1,11,-1
 430 775 l 1,12,-1
 340 775 l 1,13,-1
 131 357 l 1,14,-1
 297 357 l 1,15,-1
 131 25 l 1,16,-1
 320 25 l 1,17,-1
 320 233 l 1,18,-1
 344 233 l 1,19,-1
 344 25 l 1,20,-1
 388 25 l 2,21,22
 425 25 425 25 430 25 c 1,11,-1
456 25 m 1,23,-1
 554 25 l 1,24,-1
 554 0 l 1,25,-1
 0 0 l 1,26,-1
 0 25 l 1,27,-1
 99 25 l 1,28,-1
 99 775 l 1,29,-1
 0 775 l 1,30,-1
 0 800 l 1,31,-1
 554 800 l 1,32,-1
 554 775 l 1,33,-1
 456 775 l 1,34,-1
 456 400 l 2,35,36
 456 72 456 72 456 25 c 1,23,-1
320 621 m 1,37,-1
 344 621 l 1,38,-1
 344 511 l 1,39,-1
 320 511 l 1,40,-1
 320 567 l 2,41,42
 320 614 320 614 320 621 c 1,37,-1
EndSplineSet
Validated: 1
EndChar

StartChar: T
Encoding: 84 84 21
Width: 553
VWidth: 799
Flags: W
LayerCount: 2
Fore
SplineSet
124 179 m 2,0,1
 124 25 l 1,2,-1
 265 25 l 1,3,-1
 265 276 l 1,4,5
 205 272 205 272 165 245.5 c 128,-1,6
 125 219 125 219 124 179 c 2,0,1
430 179 m 0,7,8
 429 218 429 218 389 245.5 c 128,-1,9
 349 273 349 273 289 276 c 1,10,-1
 289 25 l 1,11,-1
 430 25 l 1,12,-1
 430 102 l 2,13,14
 430 170 430 170 430 179 c 0,7,8
456 25 m 1,15,-1
 554 25 l 1,16,-1
 554 0 l 1,17,-1
 0 0 l 1,18,-1
 0 25 l 1,19,-1
 99 25 l 1,20,-1
 99 344 l 1,21,-1
 124 344 l 1,22,-1
 124 241 l 1,23,24
 147 267 147 267 183 282.5 c 128,-1,25
 219 298 219 298 265 301 c 1,26,-1
 265 775 l 1,27,-1
 0 775 l 1,28,-1
 0 800 l 1,29,-1
 554 800 l 1,30,-1
 554 775 l 1,31,-1
 289 775 l 1,32,-1
 289 301 l 1,33,34
 335 297 335 297 371.5 281.5 c 128,-1,35
 408 266 408 266 430 241 c 1,36,-1
 430 344 l 1,37,-1
 456 344 l 1,38,-1
 456 184 l 2,39,40
 456 45 456 45 456 25 c 1,15,-1
EndSplineSet
Validated: 1
EndChar

StartChar: U
Encoding: 85 85 22
Width: 553
VWidth: 799
Flags: W
LayerCount: 2
Fore
SplineSet
400 25 m 1,0,-1
 554 25 l 1,1,-1
 554 0 l 1,2,-1
 0 0 l 1,3,-1
 0 25 l 1,4,-1
 154 25 l 1,5,-1
 154 530 l 1,6,-1
 154 534 l 1,7,-1
 154 775 l 1,8,-1
 0 775 l 1,9,-1
 0 800 l 1,10,-1
 554 800 l 1,11,-1
 554 775 l 1,12,-1
 400 775 l 1,13,-1
 400 266 l 1,14,-1
 400 263 l 1,15,-1
 400 144 l 2,16,17
 400 40 400 40 400 25 c 1,0,-1
375 775 m 1,18,-1
 179 775 l 1,19,-1
 179 530 l 1,20,21
 183 490 183 490 209.5 463.5 c 128,-1,22
 236 437 236 437 276 436 c 0,23,24
 317 438 317 438 345.5 465 c 128,-1,25
 374 492 374 492 375 534 c 2,26,-1
 375 654 l 2,27,28
 375 760 375 760 375 775 c 1,18,-1
277 411 m 128,-1,30
 246 411 246 411 221 424.5 c 128,-1,31
 196 438 196 438 179 460 c 1,32,-1
 179 335 l 1,33,34
 196 359 196 359 221.5 372 c 128,-1,35
 247 385 247 385 277.5 385 c 128,-1,36
 308 385 308 385 333.5 372 c 128,-1,37
 359 359 359 359 375 336 c 1,38,-1
 375 460 l 1,39,40
 358 436 358 436 333 423.5 c 128,-1,29
 308 411 308 411 277 411 c 128,-1,30
179 263 m 2,41,-1
 179 25 l 1,42,-1
 375 25 l 1,43,-1
 375 266 l 2,44,45
 372 306 372 306 345.5 333 c 128,-1,46
 319 360 319 360 277 361 c 0,47,48
 235 359 235 359 207.5 331.5 c 128,-1,49
 180 304 180 304 179 263 c 2,41,-1
EndSplineSet
Validated: 1
EndChar

StartChar: V
Encoding: 86 86 23
Width: 553
VWidth: 799
Flags: W
LayerCount: 2
Fore
SplineSet
124 387 m 1,0,1
 124 25 l 1,2,-1
 265 25 l 1,3,4
 261 170 261 170 222 270.5 c 128,-1,5
 183 371 183 371 124 387 c 1,0,1
430 383 m 1,6,7
 374 358 374 358 334 259.5 c 128,-1,8
 294 161 294 161 289 25 c 1,9,10
 430 25 l 1,11,-1
 430 204 l 2,12,13
 430 360 430 360 430 383 c 1,6,7
456 25 m 1,14,-1
 554 25 l 1,15,-1
 554 0 l 1,16,-1
 0 0 l 1,17,-1
 0 25 l 1,18,-1
 99 25 l 1,19,-1
 99 775 l 1,20,-1
 0 775 l 1,21,-1
 0 800 l 1,22,-1
 554 800 l 1,23,-1
 554 775 l 1,24,-1
 124 775 l 1,25,-1
 124 411 l 1,26,27
 179 402 179 402 219.5 333.5 c 128,-1,28
 260 265 260 265 277 156 c 1,29,30
 300 271 300 271 348 340.5 c 128,-1,31
 396 410 396 410 456 412 c 1,32,-1
 456 206 l 2,33,34
 456 48 456 48 456 25 c 1,14,-1
EndSplineSet
Validated: 1
EndChar

StartChar: W
Encoding: 87 87 24
Width: 553
VWidth: 799
Flags: W
LayerCount: 2
Fore
SplineSet
265 775 m 1,0,1
 124 775 l 1,2,-1
 124 68 l 1,3,-1
 276 400 l 1,4,-1
 430 68 l 1,5,-1
 430 775 l 1,6,-1
 289 775 l 1,7,-1
 289 511 l 1,8,-1
 265 511 l 1,9,-1
 265 644 l 2,10,11
 265 758 265 758 265 775 c 1,0,1
276 342 m 1,12,-1
 131 25 l 1,13,-1
 424 25 l 1,14,-1
 351 183 l 2,15,16
 285 322 285 322 276 342 c 1,12,-1
456 25 m 1,17,-1
 554 25 l 1,18,-1
 554 0 l 1,19,-1
 0 0 l 1,20,-1
 0 25 l 1,21,-1
 99 25 l 1,22,-1
 99 775 l 1,23,-1
 0 775 l 1,24,-1
 0 800 l 1,25,-1
 554 800 l 1,26,-1
 554 775 l 1,27,-1
 456 775 l 1,28,-1
 456 400 l 2,29,30
 456 72 456 72 456 25 c 1,17,-1
EndSplineSet
Validated: 1
EndChar

StartChar: X
Encoding: 88 88 25
Width: 553
VWidth: 799
Flags: W
LayerCount: 2
Fore
SplineSet
430 485 m 1,0,1
 430 775 l 1,2,-1
 140 775 l 1,3,-1
 286 631 l 2,4,5
 412 503 412 503 430 485 c 1,0,1
430 315 m 1,6,-1
 140 25 l 1,7,-1
 430 25 l 1,8,-1
 430 169 l 2,9,10
 430 297 430 297 430 315 c 1,6,-1
430 351 m 1,11,-1
 430 449 l 1,12,-1
 124 758 l 1,13,-1
 124 42 l 1,14,-1
 276 196 l 2,15,16
 411 331 411 331 430 351 c 1,11,-1
456 25 m 1,17,-1
 554 25 l 1,18,-1
 554 0 l 1,19,-1
 0 0 l 1,20,-1
 0 25 l 1,21,-1
 99 25 l 1,22,-1
 99 775 l 1,23,-1
 0 775 l 1,24,-1
 0 800 l 1,25,-1
 554 800 l 1,26,-1
 554 775 l 1,27,-1
 456 775 l 1,28,-1
 456 400 l 2,29,30
 456 72 456 72 456 25 c 1,17,-1
EndSplineSet
Validated: 1
EndChar

StartChar: Y
Encoding: 89 89 26
Width: 553
VWidth: 799
Flags: W
LayerCount: 2
Fore
SplineSet
124 736 m 1,0,1
 124 25 l 1,2,-1
 265 25 l 1,3,-1
 265 453 l 1,4,-1
 194 595 l 2,5,6
 132 718 132 718 124 736 c 1,0,1
276 483 m 1,7,-1
 424 776 l 1,8,-1
 131 776 l 1,9,-1
 204 630 l 2,10,11
 268 501 268 501 276 483 c 1,7,-1
289 25 m 1,12,-1
 554 25 l 1,13,-1
 554 1 l 1,14,-1
 0 1 l 1,15,-1
 0 25 l 1,16,-1
 99 25 l 1,17,-1
 99 776 l 1,18,-1
 0 776 l 1,19,-1
 0 800 l 1,20,-1
 554 801 l 1,21,-1
 554 776 l 1,22,-1
 451 776 l 1,23,-1
 289 453 l 1,24,-1
 289 239 l 2,25,26
 289 52 289 52 289 25 c 1,12,-1
EndSplineSet
Validated: 1
EndChar

StartChar: Z
Encoding: 90 90 27
Width: 553
VWidth: 799
Flags: W
LayerCount: 2
Fore
SplineSet
344 507 m 1,0,-1
 344 25 l 1,1,-1
 430 25 l 1,2,-1
 430 775 l 1,3,-1
 344 775 l 1,4,-1
 344 621 l 1,5,-1
 320 621 l 1,6,-1
 320 775 l 1,7,-1
 124 775 l 1,8,-1
 124 219 l 1,9,-1
 344 552 l 1,10,-1
 344 508 l 1,11,-1
 344 507 l 1,0,-1
456 25 m 1,12,13
 554 25 l 1,14,-1
 554 0 l 1,15,-1
 0 0 l 1,16,-1
 0 25 l 1,17,-1
 320 25 l 1,18,-1
 320 470 l 1,19,-1
 99 137 l 1,20,-1
 99 775 l 1,21,-1
 0 775 l 1,22,-1
 0 800 l 1,23,-1
 554 800 l 1,24,-1
 554 775 l 1,25,-1
 456 775 l 1,26,-1
 456 400 l 2,27,28
 456 72 456 72 456 25 c 1,12,13
EndSplineSet
Validated: 1
EndChar

